<svg xmlns="http://www.w3.org/2000/svg" width="200" height="200" viewBox="0 0 200 200">
  <!-- 배경 -->
  <rect width="200" height="200" fill="white" />
  
  <!-- 짜장면 그릇 -->
  <ellipse cx="100" cy="120" rx="60" ry="20" fill="#F3F4F6" stroke="#D1D5DB" stroke-width="3" />
  <ellipse cx="100" cy="115" rx="50" ry="15" fill="#1E3A8A" />
  
  <!-- 면 -->
  <path d="M70 100 Q85 90 100 100 Q115 90 130 100" stroke="#FEF3C7" stroke-width="4" fill="none" />
  <path d="M75 105 Q90 95 105 105 Q120 95 125 105" stroke="#FEF3C7" stroke-width="4" fill="none" />
  <path d="M80 110 Q95 100 110 110 Q125 100 120 110" stroke="#FEF3C7" stroke-width="4" fill="none" />
  
  <!-- 고명 -->
  <circle cx="90" cy="95" r="5" fill="#F87171" /> <!-- 당근 -->
  <circle cx="110" cy="95" r="5" fill="#34D399" /> <!-- 오이 -->
  
  <!-- 젓가락 -->
  <rect x="140" y="70" width="40" height="3" rx="1.5" fill="#92400E" transform="rotate(30, 140, 70)" />
  <rect x="143" y="75" width="40" height="3" rx="1.5" fill="#92400E" transform="rotate(30, 143, 75)" />
</svg> 