<svg xmlns="http://www.w3.org/2000/svg" width="200" height="200" viewBox="0 0 200 200">
  <!-- 배경 -->
  <rect width="200" height="200" fill="white" />
  
  <!-- 접시 -->
  <ellipse cx="100" cy="120" rx="70" ry="20" fill="#F3F4F6" stroke="#D1D5DB" stroke-width="3" />
  
  <!-- 스테이크 -->
  <rect x="70" y="80" width="60" height="40" rx="10" fill="#B91C1C" />
  <rect x="70" y="80" width="60" height="40" rx="10" fill="#F87171" opacity="0.5" />
  
  <!-- 구운 자국 -->
  <line x1="80" y1="85" x2="90" y2="95" stroke="#78350F" stroke-width="2" />
  <line x1="100" y1="85" x2="110" y2="95" stroke="#78350F" stroke-width="2" />
  <line x1="80" y1="105" x2="90" y2="115" stroke="#78350F" stroke-width="2" />
  <line x1="100" y1="105" x2="110" y2="115" stroke="#78350F" stroke-width="2" />
  
  <!-- 감자 -->
  <ellipse cx="140" cy="100" rx="15" ry="10" fill="#FEF3C7" />
  
  <!-- 브로콜리 -->
  <circle cx="50" cy="100" r="10" fill="#34D399" />
  <circle cx="45" cy="95" r="5" fill="#34D399" />
  <circle cx="55" cy="95" r="5" fill="#34D399" />
  <rect x="48" y="100" width="4" height="10" fill="#65A30D" />
  
  <!-- 포크와 나이프 -->
  <rect x="150" y="70" width="30" height="2" rx="1" fill="#94A3B8" transform="rotate(30, 150, 70)" />
  <rect x="40" y="70" width="30" height="2" rx="1" fill="#94A3B8" transform="rotate(-30, 40, 70)" />
  <rect x="40" y="70" width="10" height="2" rx="1" fill="#94A3B8" transform="rotate(60, 40, 70)" />
  <rect x="40" y="75" width="10" height="2" rx="1" fill="#94A3B8" transform="rotate(60, 40, 75)" />
  <rect x="40" y="80" width="10" height="2" rx="1" fill="#94A3B8" transform="rotate(60, 40, 80)" />
</svg> 